# xmcd
# 
# Track frame offsets:
#     150
#     22270
#     42552
#     54378
#     72381
#     96750
#     121408
#     142834
#     161688
#     184263
#     204066
#     227681
#     252831
#     271580
# 
# Disc length: 3898
# 
# Revision: 0
# Processed by: cddbd v1.5.2PL0 Copyright (c) Steve Scherf et al.
# Submitted via: fre:ac v1.0.31
# 
DISCID=bf0f380e
DTITLE=Delain - Hunter's Moon
DYEAR=2019
DGENRE=Country
TTITLE0=Masters Of Destiny
TTITLE1=Hunter's Moon
TTITLE2=The Silence Is Mine
TTITLE3=Art KIlls
TTITLE4=Hands Of Gold
TTITLE5=Danse Macabre
TTITLE6=Scarlet
TTITLE7=Your Body Is A Battleground
TTITLE8=Nothing Left
TTITLE9=Control The Storm
TTITLE10=Sing To Me
TTITLE11=Not Enough
TTITLE12=Scandal
TTITLE13=The Gathering
EXTD=
EXTT0=
EXTT1=
EXTT2=
EXTT3=
EXTT4=
EXTT5=
EXTT6=
EXTT7=
EXTT8=
EXTT9=
EXTT10=
EXTT11=
EXTT12=
EXTT13=
PLAYORDER=
